<svg width="20" height="20" viewBox="0 0 20 20" fill="none" xmlns="http://www.w3.org/2000/svg">
<path d="M16.25 4.58333L15.7336 12.9376C15.6016 15.072 15.5356 16.1393 15.0006 16.9066C14.7361 17.2859 14.3955 17.6061 14.0006 17.8467C13.2018 18.3333 12.1325 18.3333 9.99395 18.3333C7.8526 18.3333 6.78192 18.3333 5.98254 17.8458C5.58733 17.6047 5.24666 17.284 4.98224 16.904C4.4474 16.1355 4.38288 15.0668 4.25384 12.9293L3.75 4.58333" stroke="#0C0A0A" stroke-width="1.5" stroke-linecap="round"/>
<path d="M7.5 9.77905H12.5" stroke="#0C0A0A" stroke-width="1.5" stroke-linecap="round"/>
<path d="M8.75 13.0452H11.25" stroke="#0C0A0A" stroke-width="1.5" stroke-linecap="round"/>
<path d="M2.5 4.58333H17.5M13.3796 4.58333L12.8107 3.40977C12.4328 2.63021 12.2439 2.24043 11.9179 1.99734C11.8456 1.94342 11.7691 1.89545 11.689 1.85392C11.3281 1.66667 10.8949 1.66667 10.0286 1.66667C9.14053 1.66667 8.69649 1.66667 8.32958 1.86177C8.24826 1.90501 8.17066 1.95491 8.09759 2.01097C7.76787 2.26392 7.5837 2.66796 7.21535 3.47605L6.71061 4.58333" stroke="#0C0A0A" stroke-width="1.5" stroke-linecap="round"/>
</svg>
