<svg width="25" height="24" viewBox="0 0 25 24" fill="none" xmlns="http://www.w3.org/2000/svg">
<path d="M4.66675 11V15C4.66675 18.2998 4.66675 19.9497 5.69188 20.9749C6.717 22 8.36692 22 11.6667 22H13.6667C16.9665 22 18.6164 22 19.6416 20.9749C20.6667 19.9497 20.6667 18.2998 20.6667 15V11" stroke="#141B34" stroke-width="1.5" stroke-linecap="round" stroke-linejoin="round"/>
<path d="M3.66675 9C3.66675 8.25231 3.66675 7.87846 3.86771 7.6C3.99936 7.41758 4.18872 7.26609 4.41675 7.16077C4.76483 7 5.23213 7 6.16675 7H19.1667C20.1013 7 20.5686 7 20.9167 7.16077C21.1447 7.26609 21.3341 7.41758 21.4657 7.6C21.6667 7.87846 21.6667 8.25231 21.6667 9C21.6667 9.74769 21.6667 10.1215 21.4657 10.4C21.3341 10.5824 21.1447 10.7339 20.9167 10.8392C20.5686 11 20.1013 11 19.1667 11H6.16675C5.23213 11 4.76483 11 4.41675 10.8392C4.18872 10.7339 3.99936 10.5824 3.86771 10.4C3.66675 10.1215 3.66675 9.74769 3.66675 9Z" stroke="#141B34" stroke-width="1.5" stroke-linejoin="round"/>
<path d="M6.66675 3.78571C6.66675 2.79949 7.46624 2 8.45246 2H8.80961C10.9398 2 12.6667 3.7269 12.6667 5.85714V7H9.88104C8.10583 7 6.66675 5.56091 6.66675 3.78571Z" stroke="#141B34" stroke-width="1.5" stroke-linejoin="round"/>
<path d="M18.6667 3.78571C18.6667 2.79949 17.8672 2 16.881 2H16.5238C14.3936 2 12.6667 3.7269 12.6667 5.85714V7H15.4524C17.2276 7 18.6667 5.56091 18.6667 3.78571Z" stroke="#141B34" stroke-width="1.5" stroke-linejoin="round"/>
<path d="M12.6667 11V22" stroke="#141B34" stroke-width="1.5" stroke-linecap="round" stroke-linejoin="round"/>
</svg>
