<svg width="18" height="18" viewBox="0 0 18 18" fill="none" xmlns="http://www.w3.org/2000/svg">
<path d="M5.75 4C5.75 3.13805 6.09241 2.3114 6.7019 1.7019C7.3114 1.09241 8.13805 0.75 9 0.75C9.86195 0.75 10.6886 1.09241 11.2981 1.7019C11.9076 2.3114 12.25 3.13805 12.25 4C12.25 4.86195 11.9076 5.6886 11.2981 6.2981C10.6886 6.90759 9.86195 7.25 9 7.25C8.13805 7.25 7.3114 6.90759 6.7019 6.2981C6.09241 5.6886 5.75 4.86195 5.75 4ZM1.9948 11.9948C2.79183 11.1978 3.87283 10.75 5 10.75H13C14.1272 10.75 15.2082 11.1978 16.0052 11.9948C16.8022 12.7918 17.25 13.8728 17.25 15C17.25 15.5967 17.0129 16.169 16.591 16.591C16.169 17.0129 15.5967 17.25 15 17.25H3C2.40326 17.25 1.83097 17.0129 1.40901 16.591C0.987053 16.169 0.75 15.5967 0.75 15C0.75 13.8728 1.19777 12.7918 1.9948 11.9948Z" stroke="black" stroke-width="1.5"/>
</svg>
