<svg width="48" height="48" viewBox="0 0 48 48" fill="none" xmlns="http://www.w3.org/2000/svg">
    <g clip-path="url(#5of31fujna)">
        <path d="M42.361 35.953a3.168 3.168 0 0 1-3.167-3.162V21.3c0-.161-.003-.321-.008-.48 4.18-.376 7.467-3.895 7.467-8.166 0-4.522-3.683-8.201-8.209-8.201a8.209 8.209 0 0 0-6.807 3.623 15.342 15.342 0 0 0-3.91-1.649V3.934A3.939 3.939 0 0 0 23.79 0a3.939 3.939 0 0 0-3.935 3.934v2.491a15.36 15.36 0 0 0-6.944 4.009C9.995 13.348 8.388 17.207 8.388 21.3v11.49a3.168 3.168 0 0 1-3.167 3.163 3.876 3.876 0 0 0-3.874 3.87 3.876 3.876 0 0 0 3.874 3.87h13.56A5.07 5.07 0 0 0 23.791 48a5.071 5.071 0 0 0 5.01-4.308h13.56a3.876 3.876 0 0 0 3.874-3.87 3.876 3.876 0 0 0-3.874-3.87z" fill="#FFD26F"/>
        <path d="M42.36 35.953H5.222a3.876 3.876 0 0 0-3.874 3.87 3.876 3.876 0 0 0 3.874 3.87h37.14a3.876 3.876 0 0 0 3.874-3.87 3.876 3.876 0 0 0-3.874-3.87z" fill="#FFE187"/>
        <path d="M23.791 5.915c1.338 0 2.66.175 3.935.513V3.934A3.939 3.939 0 0 0 23.791 0a3.939 3.939 0 0 0-3.935 3.934v2.491c1.27-.335 2.59-.51 3.935-.51zM18.781 43.692A5.071 5.071 0 0 0 23.791 48a5.071 5.071 0 0 0 5.01-4.308H18.78z" fill="#F9C969"/>
        <path d="M42.36 35.953h-3.184a3.876 3.876 0 0 1 3.874 3.87 3.876 3.876 0 0 1-3.874 3.87h3.185a3.876 3.876 0 0 0 3.874-3.87 3.876 3.876 0 0 0-3.874-3.87z" fill="#FFD26F"/>
        <path d="M23.92.002a3.915 3.915 0 0 0-1.722.336 3.938 3.938 0 0 1 2.343 3.596v.047a.737.737 0 0 1-.742.734h-.008a15.39 15.39 0 0 0-3.935.51v1.2a15.39 15.39 0 0 1 7.87.003V4.007c0-2.136-1.672-3.936-3.807-4.005zM18.781 43.692c.057.377.155.74.29 1.085h4.339c.931 0 1.398 1.134.73 1.784a5.077 5.077 0 0 1-1.943 1.183 5.071 5.071 0 0 0 6.604-4.051H18.78z" fill="#F4BF62"/>
        <path d="M38.444 4.454c-4.526 0-8.208 3.68-8.208 8.201 0 4.521 3.682 8.2 8.208 8.2s8.209-3.679 8.209-8.2c0-4.522-3.683-8.201-8.209-8.201z" fill="#FE646F"/>
        <path d="M38.444 4.454c-.33 0-.655.02-.975.058 4.068.483 7.233 3.95 7.233 8.143 0 4.192-3.165 7.658-7.233 8.141.32.038.645.058.975.058 4.526 0 8.208-3.678 8.208-8.198 0-4.523-3.682-8.202-8.208-8.202z" fill="#FD4755"/>
        <path d="M39.194 32.79V21.3c0-.16-.003-.32-.008-.48a8.19 8.19 0 0 1-3.2-.341c.015.273.023.546.023.821v11.49a3.168 3.168 0 0 0 3.167 3.163h3.185a3.168 3.168 0 0 1-3.167-3.162zM31.637 8.077a15.304 15.304 0 0 0-9.439-2.08 15.272 15.272 0 0 1 8.567 3.761c.226-.596.52-1.16.872-1.681z" fill="#F9C969"/>
        <path d="M38.444 8.318a.75.75 0 0 0-.75.75v5.065a.75.75 0 0 0 1.5 0V9.068a.75.75 0 0 0-.75-.75zM38.444 16.99a.75.75 0 1 0 0-1.5.75.75 0 0 0 0 1.5z" fill="#F9F6F9"/>
    </g>
    <defs>
        <clipPath id="5of31fujna">
            <path fill="#fff" d="M0 0h48v48H0z"/>
        </clipPath>
    </defs>
</svg>
