<svg xmlns="http://www.w3.org/2000/svg" xmlns:xlink="http://www.w3.org/1999/xlink" width="600" zoomAndPan="magnify" viewBox="0 0 450 149.999998" height="200" preserveAspectRatio="xMidYMid meet" version="1.0"><defs><g/></defs><rect x="-45" width="540" fill="#ffffff" y="-15" height="179.999997" fill-opacity="1"/><rect x="-45" width="540" fill="#ffffff" y="-15" height="179.999997" fill-opacity="1"/><g fill="#fd0059" fill-opacity="1"><g transform="translate(6.579106, 97.771912)"><g><path d="M 5.796875 0 L 5.796875 -59.65625 L 27.703125 -59.65625 C 32.472656 -59.65625 36.40625 -58.84375 39.5 -57.21875 C 42.59375 -55.601562 44.90625 -53.414062 46.4375 -50.65625 C 47.976562 -47.90625 48.75 -44.851562 48.75 -41.5 C 48.75 -37.863281 47.796875 -34.539062 45.890625 -31.53125 C 43.984375 -28.519531 41.015625 -26.332031 36.984375 -24.96875 L 49.34375 0 L 36.8125 0 L 25.734375 -23.515625 L 16.703125 -23.515625 L 16.703125 0 Z M 16.703125 -31.53125 L 27.015625 -31.53125 C 30.648438 -31.53125 33.316406 -32.410156 35.015625 -34.171875 C 36.722656 -35.929688 37.578125 -38.257812 37.578125 -41.15625 C 37.578125 -44 36.738281 -46.269531 35.0625 -47.96875 C 33.382812 -49.675781 30.671875 -50.53125 26.921875 -50.53125 L 16.703125 -50.53125 Z M 16.703125 -31.53125 "/></g></g></g><g fill="#fd0059" fill-opacity="1"><g transform="translate(57.113729, 97.771912)"><g><path d="M 26.078125 1.015625 C 21.816406 1.015625 18.035156 0.109375 14.734375 -1.703125 C 11.441406 -3.523438 8.859375 -6.082031 6.984375 -9.375 C 5.109375 -12.664062 4.171875 -16.472656 4.171875 -20.796875 C 4.171875 -25.171875 5.09375 -29.0625 6.9375 -32.46875 C 8.789062 -35.875 11.347656 -38.53125 14.609375 -40.4375 C 17.878906 -42.34375 21.726562 -43.296875 26.15625 -43.296875 C 30.3125 -43.296875 33.976562 -42.382812 37.15625 -40.5625 C 40.332031 -38.75 42.816406 -36.265625 44.609375 -33.109375 C 46.398438 -29.953125 47.296875 -26.441406 47.296875 -22.578125 C 47.296875 -21.953125 47.28125 -21.296875 47.25 -20.609375 C 47.226562 -19.929688 47.1875 -19.226562 47.125 -18.5 L 15 -18.5 C 15.226562 -15.195312 16.378906 -12.609375 18.453125 -10.734375 C 20.523438 -8.859375 23.035156 -7.921875 25.984375 -7.921875 C 28.203125 -7.921875 30.0625 -8.414062 31.5625 -9.40625 C 33.070312 -10.40625 34.195312 -11.703125 34.9375 -13.296875 L 46.015625 -13.296875 C 45.222656 -10.617188 43.898438 -8.1875 42.046875 -6 C 40.203125 -3.820312 37.929688 -2.109375 35.234375 -0.859375 C 32.535156 0.390625 29.484375 1.015625 26.078125 1.015625 Z M 26.15625 -34.421875 C 23.488281 -34.421875 21.128906 -33.664062 19.078125 -32.15625 C 17.035156 -30.65625 15.734375 -28.375 15.171875 -25.3125 L 36.21875 -25.3125 C 36.050781 -28.09375 35.03125 -30.304688 33.15625 -31.953125 C 31.28125 -33.597656 28.945312 -34.421875 26.15625 -34.421875 Z M 26.15625 -34.421875 "/></g></g></g><g fill="#fd0059" fill-opacity="1"><g transform="translate(108.074564, 97.771912)"><g><path d="M 5.546875 0 L 5.546875 -42.265625 L 15.171875 -42.265625 L 16.109375 -36.5625 C 17.472656 -38.601562 19.273438 -40.234375 21.515625 -41.453125 C 23.765625 -42.679688 26.363281 -43.296875 29.3125 -43.296875 C 35.84375 -43.296875 40.472656 -40.765625 43.203125 -35.703125 C 44.734375 -38.035156 46.789062 -39.882812 49.375 -41.25 C 51.96875 -42.613281 54.796875 -43.296875 57.859375 -43.296875 C 63.367188 -43.296875 67.601562 -41.644531 70.5625 -38.34375 C 73.519531 -35.050781 75 -30.222656 75 -23.859375 L 75 0 L 64.078125 0 L 64.078125 -22.84375 C 64.078125 -26.476562 63.378906 -29.257812 61.984375 -31.1875 C 60.597656 -33.125 58.457031 -34.09375 55.5625 -34.09375 C 52.601562 -34.09375 50.226562 -33.007812 48.4375 -30.84375 C 46.65625 -28.6875 45.765625 -25.675781 45.765625 -21.8125 L 45.765625 0 L 34.859375 0 L 34.859375 -22.84375 C 34.859375 -26.476562 34.144531 -29.257812 32.71875 -31.1875 C 31.300781 -33.125 29.113281 -34.09375 26.15625 -34.09375 C 23.257812 -34.09375 20.914062 -33.007812 19.125 -30.84375 C 17.34375 -28.6875 16.453125 -25.675781 16.453125 -21.8125 L 16.453125 0 Z M 5.546875 0 "/></g></g></g><g fill="#fd0059" fill-opacity="1"><g transform="translate(187.924566, 97.771912)"><g><path d="M 11.421875 -48.828125 C 9.429688 -48.828125 7.796875 -49.421875 6.515625 -50.609375 C 5.242188 -51.804688 4.609375 -53.316406 4.609375 -55.140625 C 4.609375 -56.953125 5.242188 -58.441406 6.515625 -59.609375 C 7.796875 -60.773438 9.429688 -61.359375 11.421875 -61.359375 C 13.410156 -61.359375 15.039062 -60.773438 16.3125 -59.609375 C 17.59375 -58.441406 18.234375 -56.953125 18.234375 -55.140625 C 18.234375 -53.316406 17.59375 -51.804688 16.3125 -50.609375 C 15.039062 -49.421875 13.410156 -48.828125 11.421875 -48.828125 Z M 5.96875 0 L 5.96875 -42.265625 L 16.875 -42.265625 L 16.875 0 Z M 5.96875 0 "/></g></g></g><g fill="#fd0059" fill-opacity="1"><g transform="translate(210.67797, 97.771912)"><g><path d="M 5.546875 0 L 5.546875 -42.265625 L 15.171875 -42.265625 L 16.015625 -35.109375 C 17.328125 -37.609375 19.21875 -39.597656 21.6875 -41.078125 C 24.15625 -42.554688 27.066406 -43.296875 30.421875 -43.296875 C 35.648438 -43.296875 39.710938 -41.644531 42.609375 -38.34375 C 45.503906 -35.050781 46.953125 -30.222656 46.953125 -23.859375 L 46.953125 0 L 36.046875 0 L 36.046875 -22.84375 C 36.046875 -26.476562 35.304688 -29.257812 33.828125 -31.1875 C 32.347656 -33.125 30.046875 -34.09375 26.921875 -34.09375 C 23.859375 -34.09375 21.347656 -33.007812 19.390625 -30.84375 C 17.429688 -28.6875 16.453125 -25.675781 16.453125 -21.8125 L 16.453125 0 Z M 5.546875 0 "/></g></g></g><g fill="#fd0059" fill-opacity="1"><g transform="translate(262.491001, 97.771912)"><g><path d="M 24.96875 1.015625 C 20.988281 1.015625 17.4375 0.0507812 14.3125 -1.875 C 11.1875 -3.800781 8.710938 -6.441406 6.890625 -9.796875 C 5.078125 -13.148438 4.171875 -16.957031 4.171875 -21.21875 C 4.171875 -25.476562 5.078125 -29.269531 6.890625 -32.59375 C 8.710938 -35.914062 11.1875 -38.53125 14.3125 -40.4375 C 17.4375 -42.34375 20.988281 -43.296875 24.96875 -43.296875 C 28.144531 -43.296875 30.925781 -42.695312 33.3125 -41.5 C 35.707031 -40.3125 37.640625 -38.632812 39.109375 -36.46875 L 39.109375 -61.359375 L 50.015625 -61.359375 L 50.015625 0 L 40.3125 0 L 39.109375 -6.046875 C 37.742188 -4.171875 35.941406 -2.523438 33.703125 -1.109375 C 31.460938 0.304688 28.550781 1.015625 24.96875 1.015625 Z M 27.265625 -8.515625 C 30.785156 -8.515625 33.664062 -9.691406 35.90625 -12.046875 C 38.15625 -14.410156 39.28125 -17.441406 39.28125 -21.140625 C 39.28125 -24.828125 38.15625 -27.847656 35.90625 -30.203125 C 33.664062 -32.566406 30.785156 -33.75 27.265625 -33.75 C 23.804688 -33.75 20.9375 -32.582031 18.65625 -30.25 C 16.382812 -27.925781 15.25 -24.914062 15.25 -21.21875 C 15.25 -17.53125 16.382812 -14.488281 18.65625 -12.09375 C 20.9375 -9.707031 23.804688 -8.515625 27.265625 -8.515625 Z M 27.265625 -8.515625 "/></g></g></g><g fill="#fd0059" fill-opacity="1"><g transform="translate(318.053643, 97.771912)"><g><path d="M 26.078125 1.015625 C 21.816406 1.015625 18.035156 0.109375 14.734375 -1.703125 C 11.441406 -3.523438 8.859375 -6.082031 6.984375 -9.375 C 5.109375 -12.664062 4.171875 -16.472656 4.171875 -20.796875 C 4.171875 -25.171875 5.09375 -29.0625 6.9375 -32.46875 C 8.789062 -35.875 11.347656 -38.53125 14.609375 -40.4375 C 17.878906 -42.34375 21.726562 -43.296875 26.15625 -43.296875 C 30.3125 -43.296875 33.976562 -42.382812 37.15625 -40.5625 C 40.332031 -38.75 42.816406 -36.265625 44.609375 -33.109375 C 46.398438 -29.953125 47.296875 -26.441406 47.296875 -22.578125 C 47.296875 -21.953125 47.28125 -21.296875 47.25 -20.609375 C 47.226562 -19.929688 47.1875 -19.226562 47.125 -18.5 L 15 -18.5 C 15.226562 -15.195312 16.378906 -12.609375 18.453125 -10.734375 C 20.523438 -8.859375 23.035156 -7.921875 25.984375 -7.921875 C 28.203125 -7.921875 30.0625 -8.414062 31.5625 -9.40625 C 33.070312 -10.40625 34.195312 -11.703125 34.9375 -13.296875 L 46.015625 -13.296875 C 45.222656 -10.617188 43.898438 -8.1875 42.046875 -6 C 40.203125 -3.820312 37.929688 -2.109375 35.234375 -0.859375 C 32.535156 0.390625 29.484375 1.015625 26.078125 1.015625 Z M 26.15625 -34.421875 C 23.488281 -34.421875 21.128906 -33.664062 19.078125 -32.15625 C 17.035156 -30.65625 15.734375 -28.375 15.171875 -25.3125 L 36.21875 -25.3125 C 36.050781 -28.09375 35.03125 -30.304688 33.15625 -31.953125 C 31.28125 -33.597656 28.945312 -34.421875 26.15625 -34.421875 Z M 26.15625 -34.421875 "/></g></g></g><g fill="#fd0059" fill-opacity="1"><g transform="translate(369.014478, 97.771912)"><g><path d="M 5.546875 0 L 5.546875 -42.265625 L 15.25 -42.265625 L 16.28125 -34.34375 C 17.8125 -37.070312 19.894531 -39.242188 22.53125 -40.859375 C 25.175781 -42.484375 28.289062 -43.296875 31.875 -43.296875 L 31.875 -31.78125 L 28.796875 -31.78125 C 26.410156 -31.78125 24.28125 -31.410156 22.40625 -30.671875 C 20.53125 -29.941406 19.066406 -28.664062 18.015625 -26.84375 C 16.972656 -25.019531 16.453125 -22.492188 16.453125 -19.265625 L 16.453125 0 Z M 5.546875 0 "/></g></g></g><g fill="#fd0059" fill-opacity="1"><g transform="translate(402.761089, 97.771912)"><g><path d="M 23.015625 1.015625 C 19.265625 1.015625 15.96875 0.40625 13.125 -0.8125 C 10.28125 -2.03125 8.003906 -3.71875 6.296875 -5.875 C 4.597656 -8.039062 3.578125 -10.539062 3.234375 -13.375 L 14.234375 -13.375 C 14.578125 -11.726562 15.5 -10.320312 17 -9.15625 C 18.507812 -7.988281 20.457031 -7.40625 22.84375 -7.40625 C 25.226562 -7.40625 26.972656 -7.890625 28.078125 -8.859375 C 29.179688 -9.828125 29.734375 -10.9375 29.734375 -12.1875 C 29.734375 -14 28.9375 -15.234375 27.34375 -15.890625 C 25.757812 -16.546875 23.546875 -17.1875 20.703125 -17.8125 C 18.890625 -18.207031 17.046875 -18.6875 15.171875 -19.25 C 13.296875 -19.820312 11.578125 -20.546875 10.015625 -21.421875 C 8.453125 -22.304688 7.1875 -23.441406 6.21875 -24.828125 C 5.25 -26.222656 4.765625 -27.945312 4.765625 -30 C 4.765625 -33.75 6.253906 -36.898438 9.234375 -39.453125 C 12.222656 -42.015625 16.414062 -43.296875 21.8125 -43.296875 C 26.8125 -43.296875 30.800781 -42.128906 33.78125 -39.796875 C 36.769531 -37.460938 38.546875 -34.253906 39.109375 -30.171875 L 28.796875 -30.171875 C 28.171875 -33.296875 25.816406 -34.859375 21.734375 -34.859375 C 19.679688 -34.859375 18.101562 -34.457031 17 -33.65625 C 15.894531 -32.863281 15.34375 -31.867188 15.34375 -30.671875 C 15.34375 -29.421875 16.164062 -28.425781 17.8125 -27.6875 C 19.457031 -26.957031 21.644531 -26.28125 24.375 -25.65625 C 27.320312 -24.96875 30.03125 -24.210938 32.5 -23.390625 C 34.976562 -22.566406 36.957031 -21.34375 38.4375 -19.71875 C 39.914062 -18.101562 40.65625 -15.789062 40.65625 -12.78125 C 40.707031 -10.164062 40.019531 -7.804688 38.59375 -5.703125 C 37.175781 -3.609375 35.132812 -1.960938 32.46875 -0.765625 C 29.800781 0.421875 26.648438 1.015625 23.015625 1.015625 Z M 23.015625 1.015625 "/></g></g></g></svg>