<svg width="25" height="24" viewBox="0 0 25 24" fill="none" xmlns="http://www.w3.org/2000/svg">
<g clip-path="url(#clip0_657_561)">
<path d="M19.3333 9.5C19.3333 13.6421 15.9754 17 11.8333 17C7.69112 17 4.33325 13.6421 4.33325 9.5C4.33325 5.35787 7.69112 2 11.8333 2C15.9754 2 19.3333 5.35787 19.3333 9.5Z" stroke="black" stroke-width="1.5" stroke-linecap="square"/>
<path d="M13.3333 16.6471L15.8333 23L17.3333 19.2941L20.3333 19.8235L17.8333 14" stroke="black" stroke-width="1.5"/>
<path d="M11.3333 16.6471L8.47611 23L6.76182 19.2941L3.33325 19.8235L6.19039 14" stroke="black" stroke-width="1.5"/>
<g clip-path="url(#clip1_657_561)">
<path fill-rule="evenodd" clip-rule="evenodd" d="M11.5641 5.39298C11.1587 5.81312 10.8829 6.31847 10.8057 6.78244L10.7694 7.00087L10.6419 6.89225C10.3103 6.60999 9.75979 6.43982 9.16508 6.43581L8.77789 6.43322L8.73699 6.51724C8.70446 6.5841 8.70263 6.67604 8.72808 6.96709C8.77798 7.53763 8.92707 7.98239 9.1778 8.30861C9.23866 8.3878 9.28844 8.4594 9.28844 8.46775C9.28844 8.4761 9.23875 8.48288 9.17805 8.48288C8.84058 8.48288 8.28444 8.74018 7.86057 9.09238C7.40219 9.47325 7.39602 9.51918 7.76089 9.83106C8.25164 10.2505 8.75793 10.5013 9.15654 10.5222C9.2291 10.5261 9.28844 10.5333 9.28844 10.5383C9.28844 10.5433 9.23866 10.6122 9.1778 10.6914C8.9294 11.0146 8.77544 11.4696 8.73149 12.0106C8.70161 12.3785 8.71238 12.4986 8.78025 12.5546C8.84871 12.611 9.53318 12.5704 9.83154 12.4922C10.1271 12.4147 10.4669 12.2586 10.6381 12.1215L10.7619 12.0225L10.8142 12.2807C10.8787 12.5996 10.9783 12.8273 11.1945 13.1499C11.4023 13.46 11.7349 13.8151 11.8177 13.8151C11.8924 13.8151 12.2485 13.4538 12.4174 13.2066C12.6786 12.8242 12.8574 12.3768 12.8574 12.1053V11.9918L12.9893 12.1043C13.3112 12.3789 13.8329 12.5451 14.4601 12.5727C14.864 12.5905 14.8683 12.59 14.9066 12.5188C14.951 12.4364 14.9323 11.9389 14.8742 11.6575C14.785 11.2251 14.5699 10.7529 14.399 10.6135C14.3151 10.5452 14.3383 10.5172 14.479 10.5168C14.8792 10.5156 15.4466 10.2307 15.9255 9.79038C16.2143 9.52482 16.217 9.47852 15.9573 9.23971C15.4573 8.77991 14.8708 8.48288 14.4631 8.48288H14.3439L14.4852 8.28627C14.7522 7.91465 14.895 7.46434 14.9266 6.89401C14.9528 6.42342 14.9489 6.41781 14.5983 6.41781C13.9835 6.41781 13.381 6.59384 13.0166 6.87993L12.8657 6.99834L12.8469 6.81952C12.813 6.4974 12.6575 6.13434 12.3976 5.77055C12.21 5.50798 11.892 5.18494 11.821 5.18494C11.7901 5.18494 11.6745 5.27857 11.5641 5.39298ZM11.678 5.66838C11.6049 5.74999 11.4827 5.91166 11.4065 6.02761C11.0416 6.58308 10.9763 7.10203 11.2142 7.5561C11.3732 7.85966 11.3559 7.8514 11.8284 7.84847L12.2425 7.84595L12.3182 7.74994C12.3598 7.69714 12.4317 7.57345 12.478 7.4751C12.5523 7.31741 12.5621 7.25978 12.5614 6.98802C12.5607 6.72159 12.5486 6.65055 12.4723 6.46405C12.3664 6.20527 12.1021 5.79996 11.9333 5.63756L11.811 5.52L11.678 5.66838ZM8.97871 6.77997C8.97968 6.91312 9.03678 7.27821 9.08836 7.48117C9.22922 8.03532 9.60428 8.46029 10.0488 8.56937C10.3659 8.64716 10.3578 8.64889 10.494 8.47385C10.5626 8.38558 10.6912 8.25865 10.7796 8.19177L10.9404 8.07018L10.9204 7.90155C10.8732 7.50213 10.578 7.11889 10.1661 6.92212C9.90714 6.79843 9.45857 6.69623 9.17206 6.69561C8.98092 6.69521 8.97809 6.69644 8.97871 6.77997ZM14.1609 6.71657C13.9527 6.75131 13.6109 6.85965 13.4416 6.94453C13.0629 7.13439 12.8109 7.46462 12.728 7.87967C12.6924 8.05772 12.6934 8.06358 12.7667 8.10944C12.8608 8.16831 13.1708 8.47459 13.2312 8.56841C13.2744 8.63557 13.2843 8.63708 13.4626 8.60407C14.1477 8.47721 14.5798 7.87403 14.6479 6.94949L14.6666 6.69521L14.4525 6.6994C14.3348 6.70171 14.2035 6.70942 14.1609 6.71657ZM11.3914 8.17118C10.7393 8.38434 10.3219 9.05253 10.4312 9.70799C10.5571 10.4623 11.249 10.9808 12.004 10.8863C12.8581 10.7795 13.4229 9.91108 13.1689 9.09485C13.0491 8.70988 12.804 8.42885 12.4257 8.24275C12.213 8.13808 12.1724 8.12901 11.8826 8.12131C11.6418 8.1149 11.5283 8.12643 11.3914 8.17118ZM11.4042 8.67C11.0761 8.8328 10.8932 9.12207 10.8891 9.48459C10.8851 9.847 11.0564 10.1455 11.364 10.3118C11.6334 10.4574 11.9976 10.4704 12.2451 10.3433C12.3969 10.2653 12.5795 10.0806 12.6654 9.91804C12.7359 9.78468 12.7479 9.72393 12.7479 9.5C12.7479 9.27534 12.736 9.21552 12.6645 9.08012C12.5607 8.88366 12.3405 8.68772 12.1519 8.62389C12.073 8.5972 11.9154 8.57535 11.8017 8.57535C11.633 8.57535 11.5598 8.59276 11.4042 8.67ZM8.85395 8.82889C8.74301 8.86766 8.56145 8.95033 8.45051 9.01259C8.23826 9.13168 7.82982 9.45112 7.82982 9.49806C7.82982 9.57974 8.39157 9.98696 8.6733 10.1095C9.16632 10.324 9.74502 10.2673 10.0856 9.97127L10.1846 9.88528L10.1533 9.69264C10.1325 9.56506 10.1323 9.43498 10.153 9.30737C10.1831 9.11969 10.1818 9.11288 10.1009 9.04255C10.0551 9.00288 9.92697 8.92709 9.81602 8.87417C9.64493 8.79258 9.57191 8.77646 9.33499 8.76817C9.10614 8.76012 9.01924 8.7711 8.85395 8.82889ZM13.9511 8.81829C13.8614 8.84908 13.7217 8.91914 13.6408 8.974L13.4936 9.07374V9.92627L13.6408 10.026C13.8559 10.1718 14.0756 10.2375 14.3516 10.2387C14.7668 10.2405 15.1945 10.0557 15.6331 9.68494L15.8337 9.51542L15.7188 9.39839C15.5733 9.25007 15.1997 8.99265 15.0072 8.90807C14.6491 8.75075 14.2475 8.7166 13.9511 8.81829ZM11.7091 8.85154C11.3973 8.91183 11.1505 9.20088 11.1505 9.5058C11.1505 9.79025 11.3994 10.0866 11.6884 10.1462C11.9921 10.2088 12.3244 10.0378 12.4419 9.75851C12.6388 9.29057 12.2064 8.75544 11.7091 8.85154ZM10.1884 10.3977C9.66485 10.4821 9.24924 10.906 9.08721 11.5211C9.02797 11.746 8.96093 12.2672 8.98781 12.2939C9.03039 12.3362 9.45972 12.2987 9.73906 12.2284C10.0957 12.1385 10.3653 12.0009 10.5673 11.8054C10.7471 11.6315 10.8924 11.3417 10.9196 11.1027L10.939 10.9332L10.7822 10.818C10.696 10.7546 10.5673 10.6263 10.4963 10.5329C10.4253 10.4395 10.3654 10.3647 10.3632 10.3666C10.361 10.3686 10.2823 10.3826 10.1884 10.3977ZM13.1987 10.4711C13.1359 10.5719 12.9017 10.8017 12.7675 10.8942C12.6958 10.9435 12.6943 10.9519 12.7282 11.1194C12.7881 11.4157 12.9106 11.6427 13.109 11.8252C13.4169 12.1083 13.826 12.2626 14.3548 12.2952L14.6574 12.3138L14.657 12.1475C14.6563 11.8754 14.5465 11.4223 14.4155 11.1512C14.2104 10.7267 13.8717 10.466 13.439 10.3997L13.2602 10.3722L13.1987 10.4711ZM11.3111 11.2877C11.1689 11.4999 11.1277 11.5967 11.0887 11.8103C11.006 12.2629 11.2329 12.8421 11.6872 13.3382L11.8276 13.4914L11.9392 13.3682C12.1287 13.1588 12.3867 12.7568 12.475 12.5333C12.546 12.3536 12.5594 12.272 12.5607 12.012C12.5621 11.7394 12.5525 11.6831 12.478 11.5249C12.4317 11.4266 12.3605 11.3038 12.3197 11.252L12.2456 11.158L11.8248 11.1535L11.404 11.149L11.3111 11.2877Z" fill="black"/>
</g>
</g>
<defs>
<clipPath id="clip0_657_561">
<rect width="24" height="24" fill="white" transform="translate(0.333252)"/>
</clipPath>
<clipPath id="clip1_657_561">
<rect width="9" height="9" fill="white" transform="translate(7.33325 5)"/>
</clipPath>
</defs>
</svg>
